<svg xmlns="http://www.w3.org/2000/svg" viewBox="0 0 820 280" width="820" height="280" font-family="Arial, Helvetica, sans-serif" font-size="14" role="img" aria-labelledby="pipeline-title">
  <title id="pipeline-title">open-llm-wiki: Three Pipelines Architecture</title>
  <defs>
    <marker id="arrow" viewBox="0 0 10 10" refX="10" refY="5" markerWidth="6" markerHeight="6" orient="auto">
      <path d="M 0 0 L 10 5 L 0 10 z" fill="#94a3b8"/>
    </marker>
  </defs>

  <!-- Ingest Pipeline -->
  <rect x="20" y="20" width="780" height="70" rx="8" fill="#f0f9ff" stroke="#0ea5e9" stroke-width="1.5"/>
  <text x="40" y="42" font-size="11" fill="#0369a1" font-weight="600">PIPELINE 1: INGEST</text>
  <!-- boxes: 90w each, 120w for QA, gap=15 each side of arrow -->
  <rect x="40" y="52" width="86" height="28" rx="6" fill="#0ea5e9"/>
  <text x="83" y="71" text-anchor="middle" fill="white" font-weight="500">Drop PDF</text>
  <line x1="133" y1="66" x2="152" y2="66" stroke="#94a3b8" stroke-width="1.5" marker-end="url(#arrow)"/>

  <rect x="158" y="52" width="86" height="28" rx="6" fill="#0ea5e9"/>
  <text x="201" y="71" text-anchor="middle" fill="white" font-weight="500">Parse</text>
  <line x1="251" y1="66" x2="270" y2="66" stroke="#94a3b8" stroke-width="1.5" marker-end="url(#arrow)"/>

  <rect x="276" y="52" width="86" height="28" rx="6" fill="#0ea5e9"/>
  <text x="319" y="71" text-anchor="middle" fill="white" font-weight="500">Draft</text>
  <line x1="369" y1="66" x2="388" y2="66" stroke="#94a3b8" stroke-width="1.5" marker-end="url(#arrow)"/>

  <rect x="394" y="52" width="116" height="28" rx="6" fill="#dc2626"/>
  <text x="452" y="71" text-anchor="middle" fill="white" font-weight="500">Independent QA</text>
  <line x1="517" y1="66" x2="536" y2="66" stroke="#94a3b8" stroke-width="1.5" marker-end="url(#arrow)"/>

  <rect x="542" y="52" width="86" height="28" rx="6" fill="#0ea5e9"/>
  <text x="585" y="71" text-anchor="middle" fill="white" font-weight="500">Publish</text>
  <line x1="635" y1="66" x2="654" y2="66" stroke="#94a3b8" stroke-width="1.5" marker-end="url(#arrow)"/>

  <rect x="660" y="52" width="96" height="28" rx="6" fill="#16a34a"/>
  <text x="708" y="71" text-anchor="middle" fill="white" font-weight="500">Update Wiki</text>

  <!-- Query Pipeline -->
  <rect x="20" y="110" width="780" height="70" rx="8" fill="#fefce8" stroke="#ca8a04" stroke-width="1.5"/>
  <text x="40" y="132" font-size="11" fill="#854d0e" font-weight="600">PIPELINE 2: ASK</text>

  <rect x="40" y="142" width="106" height="28" rx="6" fill="#ca8a04"/>
  <text x="93" y="161" text-anchor="middle" fill="white" font-weight="500">Ask Question</text>
  <line x1="153" y1="156" x2="172" y2="156" stroke="#94a3b8" stroke-width="1.5" marker-end="url(#arrow)"/>

  <rect x="178" y="142" width="106" height="28" rx="6" fill="#ca8a04"/>
  <text x="231" y="161" text-anchor="middle" fill="white" font-weight="500">Search Wiki</text>
  <line x1="291" y1="156" x2="310" y2="156" stroke="#94a3b8" stroke-width="1.5" marker-end="url(#arrow)"/>

  <rect x="316" y="142" width="106" height="28" rx="6" fill="#ca8a04"/>
  <text x="369" y="161" text-anchor="middle" fill="white" font-weight="500">Synthesize</text>
  <line x1="429" y1="156" x2="448" y2="156" stroke="#94a3b8" stroke-width="1.5" marker-end="url(#arrow)"/>

  <rect x="454" y="142" width="126" height="28" rx="6" fill="#16a34a"/>
  <text x="517" y="161" text-anchor="middle" fill="white" font-weight="500">Write Back to Wiki</text>

  <!-- Lint Pipeline -->
  <rect x="20" y="200" width="780" height="70" rx="8" fill="#f0fdf4" stroke="#16a34a" stroke-width="1.5"/>
  <text x="40" y="222" font-size="11" fill="#15803d" font-weight="600">PIPELINE 3: CHECK (daily cron)</text>

  <rect x="40" y="232" width="106" height="28" rx="6" fill="#16a34a"/>
  <text x="93" y="251" text-anchor="middle" fill="white" font-weight="500">Format</text>
  <line x1="153" y1="246" x2="172" y2="246" stroke="#94a3b8" stroke-width="1.5" marker-end="url(#arrow)"/>

  <rect x="178" y="232" width="106" height="28" rx="6" fill="#16a34a"/>
  <text x="231" y="251" text-anchor="middle" fill="white" font-weight="500">QA Coverage</text>
  <line x1="291" y1="246" x2="310" y2="246" stroke="#94a3b8" stroke-width="1.5" marker-end="url(#arrow)"/>

  <rect x="316" y="232" width="106" height="28" rx="6" fill="#16a34a"/>
  <text x="369" y="251" text-anchor="middle" fill="white" font-weight="500">Cross-Refs</text>
  <line x1="429" y1="246" x2="448" y2="246" stroke="#94a3b8" stroke-width="1.5" marker-end="url(#arrow)"/>

  <rect x="454" y="232" width="126" height="28" rx="6" fill="#16a34a"/>
  <text x="517" y="251" text-anchor="middle" fill="white" font-weight="500">Contradictions</text>
  <line x1="587" y1="246" x2="606" y2="246" stroke="#94a3b8" stroke-width="1.5" marker-end="url(#arrow)"/>

  <rect x="612" y="232" width="106" height="28" rx="6" fill="#16a34a"/>
  <text x="665" y="251" text-anchor="middle" fill="white" font-weight="500">Log Archive</text>
</svg>
